<svg width="41" height="40" viewBox="0 0 41 40" fill="none" xmlns="http://www.w3.org/2000/svg">
<g clip-path="url(#clip0_4_90)">
<path d="M20.451 38.6236C30.9456 38.6236 39.4531 30.1162 39.4531 19.6216C39.4531 9.12712 30.9456 0.619629 20.451 0.619629C9.95652 0.619629 1.44904 9.12712 1.44904 19.6216C1.44904 30.1162 9.95652 38.6236 20.451 38.6236Z" fill="#A8ADF0"/>
<path d="M20.4514 0.619629C19.6114 0.619629 18.7842 0.674815 17.9729 0.780511C27.2963 1.99506 34.4964 9.96719 34.4964 19.6216C34.4964 29.2761 27.2962 37.2482 17.9729 38.4628C18.7842 38.5685 19.6114 38.6236 20.4514 38.6236C30.9459 38.6236 39.4534 30.1161 39.4534 19.6216C39.4534 9.12714 30.946 0.619629 20.4514 0.619629Z" fill="#989FEC"/>
<path d="M32.4631 9.09416L32.3693 8.85625C32.3666 8.84943 32.3613 8.84376 32.3545 8.84069L32.1216 8.73492C30.2042 7.86405 27.4996 7.64914 25.1066 7.55386H22.4115C22.3811 7.55386 22.3718 7.59502 22.3992 7.60813L27.9353 10.2622C27.9665 10.2771 27.9493 10.3236 27.9158 10.3148C25.4259 9.6648 22.9107 9.33568 20.427 9.33568C17.9513 9.33568 15.4443 9.66273 12.9622 10.3089C12.9284 10.3176 12.9113 10.2706 12.9429 10.256L18.6733 7.60851C18.701 7.59571 18.692 7.55409 18.6613 7.55409H15.7474C13.3546 7.64937 10.6499 7.86421 8.73248 8.73515L8.49955 8.84092C8.4928 8.84399 8.48751 8.8495 8.48475 8.85648L8.39094 9.09439C6.42878 14.0667 5.87117 22.5077 6.4658 27.7956L6.49691 28.0729L6.7175 28.244C9.78292 30.6211 13.8818 31.8431 16.4603 32.1675L16.7937 32.2095C16.9021 32.2231 17.0057 32.1605 17.044 32.0582L18.7223 27.5744C18.7745 27.4346 18.6855 27.2819 18.5381 27.2589L18.0231 27.178C16.2274 26.8959 13.6833 26.148 11.5332 24.1984C11.4872 24.1567 11.5315 24.0817 11.5896 24.1032C11.7643 24.1682 11.9568 24.2434 12.1551 24.3208C12.6412 24.5108 13.144 24.7071 13.4722 24.7852C15.778 25.3334 18.1163 25.6114 20.4269 25.6114V25.5702H20.4317L20.432 25.6114C22.7379 25.6114 25.0761 25.3334 27.3816 24.7851C27.7098 24.7071 28.2127 24.5107 28.6989 24.3207C28.8971 24.2433 29.0895 24.1681 29.2641 24.1032C29.3222 24.0816 29.3665 24.1567 29.3205 24.1984C27.1777 26.1394 24.6304 26.8853 22.8307 27.1672L22.3159 27.2478C22.1685 27.2709 22.0792 27.4234 22.1314 27.5632L23.81 32.0581C23.8483 32.1605 23.9519 32.2231 24.0603 32.2095L24.394 32.1675C26.9724 31.8432 31.0709 30.6211 34.1365 28.244L34.3571 28.0729L34.3882 27.7956C34.9829 22.5075 34.4253 14.0664 32.4631 9.09416ZM14.9493 21.3016C12.8649 21.4875 11.1258 19.7486 11.3114 17.6641C11.4538 16.0661 12.7404 14.7794 14.3384 14.6369C16.4228 14.451 18.1619 16.1899 17.9763 18.2745C17.8338 19.8723 16.5472 21.1592 14.9493 21.3016ZM26.5158 21.3016C24.4314 21.4875 22.6923 19.7486 22.8779 17.6641C23.0202 16.0661 24.3069 14.7794 25.9048 14.6369C27.9893 14.451 29.7284 16.1899 29.5427 18.2745C29.4003 19.8723 28.1136 21.1592 26.5158 21.3016Z" fill="white"/>
<path d="M34.3016 5.74714C30.5956 2.04096 25.6681 0 20.427 0C15.186 0 10.2585 2.04096 6.55249 5.74714C2.84638 9.4531 0.80542 14.3805 0.80542 19.6216C0.80542 24.8627 2.84638 29.7901 6.55249 33.4962C10.2585 37.2023 15.1859 39.2432 20.427 39.2432C25.6682 39.2432 30.5956 37.2023 34.3016 33.4961C38.0077 29.7901 40.0487 24.8627 40.0487 19.6216C40.0487 14.3806 38.0077 9.4531 34.3016 5.74714ZM20.427 38.004C10.2909 38.004 2.04465 29.7577 2.04465 19.6216C2.04465 9.48552 10.2909 1.23923 20.427 1.23923C30.5631 1.23923 38.8094 9.48552 38.8094 19.6216C38.8094 29.7577 30.5631 38.004 20.427 38.004Z" fill="black"/>
<path d="M33.9439 22.3371C33.9808 24.2969 33.9079 26.1525 33.7315 27.7217C30.9389 29.8873 27.0272 31.1702 24.3116 31.5117L22.9329 27.8201C24.8433 27.5209 27.7524 26.6836 30.1124 24.3591C30.3151 24.1594 30.3559 23.8476 30.2112 23.6026C30.0666 23.3576 29.7737 23.2429 29.5011 23.3237C29.2224 23.4065 28.8513 23.5515 28.4583 23.7051C28.0147 23.8784 27.5118 24.0748 27.2287 24.142C24.9729 24.6785 22.6865 24.9504 20.432 24.9504C20.4305 24.9504 20.4269 24.9504 20.4269 24.9504H20.422C18.1675 24.9504 15.8809 24.6784 13.6251 24.142C13.3422 24.0748 12.8393 23.8784 12.3956 23.7051C12.0176 23.5574 11.6598 23.4176 11.385 23.3334C11.1294 23.2551 10.8432 23.33 10.6824 23.5435C10.4925 23.7954 10.5222 24.143 10.7415 24.3592C13.1099 26.6918 16.0143 27.5314 17.9207 27.8308L16.5429 31.5116C13.8274 31.1701 9.91527 29.8871 7.12264 27.7216C6.53882 22.5285 7.08723 14.1986 9.00585 9.33675C10.7643 8.53809 13.3476 8.31098 15.7738 8.21433L11.9046 10.0085C11.6109 10.1446 11.4715 10.4842 11.5848 10.7876C11.6982 11.091 12.0261 11.2558 12.3372 11.1659C15.0224 10.3903 17.7442 9.99683 20.427 9.99683C23.1098 9.99683 25.8317 10.3903 28.5169 11.1659C28.8277 11.2555 29.1558 11.0909 29.2692 10.7876C29.3827 10.4842 29.2433 10.1448 28.9494 10.0085L25.0803 8.21433C27.5065 8.31098 30.0897 8.53809 31.8482 9.33675C32.8976 11.9959 33.5369 15.6924 33.8054 19.3458C33.8293 19.671 34.1009 19.922 34.427 19.922H34.4293C34.7921 19.922 35.0782 19.6136 35.0517 19.2517C34.7681 15.3817 34.0694 11.4686 32.9054 8.64516C32.8484 8.50697 32.7434 8.39391 32.6096 8.32708C30.1462 7.09559 26.291 6.99656 23.1932 6.91685C22.8141 6.90712 22.4477 6.89777 22.099 6.8865C21.805 6.87791 21.5443 7.07612 21.4762 7.36271C21.4082 7.64921 21.5513 7.94407 21.8185 8.06794L23.7045 8.94255C22.6093 8.81938 21.5152 8.75737 20.4269 8.75737C19.3386 8.75737 18.2443 8.81931 17.1491 8.94255L19.0352 8.06794C19.3024 7.94407 19.4455 7.64921 19.3774 7.36271C19.3094 7.07612 19.0494 6.87822 18.7547 6.8865C18.4059 6.89777 18.0396 6.90704 17.6604 6.91685C14.5627 6.99649 10.7074 7.09551 8.24406 8.32708C8.11031 8.39391 8.00523 8.50697 7.9482 8.64516C5.82194 13.8037 5.24816 22.5998 5.92189 28.1236C5.94136 28.2837 6.02253 28.4298 6.14807 28.531C9.33084 31.0967 13.8411 32.5221 16.899 32.7966C16.9177 32.7984 16.9363 32.7991 16.9547 32.7991C17.211 32.7991 17.4435 32.6403 17.5347 32.3967L19.3548 27.5339C19.4441 27.2955 19.38 27.0202 19.1765 26.8445C19.0769 26.7585 18.9496 26.7118 18.8187 26.6984C17.8635 26.6008 16.4176 26.3441 14.8943 25.6767C16.7358 26.0174 18.5885 26.1897 20.422 26.1897H20.4269C20.4269 26.1897 20.427 26.1897 20.427 26.1897H20.432C22.2571 26.1897 24.1016 26.019 25.9347 25.6813C24.4231 26.3364 22.9875 26.5901 22.0361 26.6874C21.9052 26.7008 21.7778 26.7474 21.678 26.8331C21.4741 27.0084 21.4097 27.2839 21.4988 27.5225L23.319 32.3963C23.41 32.6402 23.6427 32.7992 23.8991 32.7992C23.9176 32.7992 23.9362 32.7983 23.9548 32.7967C27.0128 32.5222 31.5231 31.0968 34.7058 28.5311C34.8314 28.4299 34.9124 28.2838 34.932 28.1237C35.1387 26.4287 35.2278 24.4254 35.1908 22.3138C35.1848 21.9738 34.9069 21.7011 34.5668 21.7011C34.2178 21.7011 33.9373 21.988 33.9439 22.3371Z" fill="black"/>
<path d="M14.6438 14.045C12.48 14.045 10.7195 15.8055 10.7195 17.9693C10.7195 20.1331 12.48 21.8936 14.6438 21.8936C16.8076 21.8936 18.5681 20.1331 18.5681 17.9693C18.5681 15.8055 16.8076 14.045 14.6438 14.045ZM14.6438 20.6544C13.1633 20.6544 11.9587 19.4499 11.9587 17.9693C11.9587 16.4887 13.1633 15.2842 14.6438 15.2842C16.1243 15.2842 17.3289 16.4887 17.3289 17.9693C17.3289 19.4499 16.1243 20.6544 14.6438 20.6544Z" fill="black"/>
<path d="M26.2103 14.045C24.0465 14.045 22.2859 15.8055 22.2859 17.9693C22.2859 20.1331 24.0465 21.8936 26.2103 21.8936C28.3741 21.8936 30.1346 20.1331 30.1346 17.9693C30.1346 15.8055 28.3741 14.045 26.2103 14.045ZM26.2103 20.6544C24.7298 20.6544 23.5252 19.4499 23.5252 17.9693C23.5252 16.4887 24.7298 15.2842 26.2103 15.2842C27.6908 15.2842 28.8954 16.4887 28.8954 17.9693C28.8954 19.4499 27.6907 20.6544 26.2103 20.6544Z" fill="black"/>
</g>
<defs>
<clipPath id="clip0_4_90">
<rect width="39.2432" height="39.2432" fill="white" transform="translate(0.80542)"/>
</clipPath>
</defs>
</svg>
