<svg width="37" height="38" viewBox="0 0 37 38" fill="none" xmlns="http://www.w3.org/2000/svg">
<g clip-path="url(#clip0_3_20)">
<path d="M18.8054 37.2433C28.854 37.2433 37 29.0973 37 19.0487C37 9.00006 28.854 0.854065 18.8054 0.854065C8.75684 0.854065 0.61084 9.00006 0.61084 19.0487C0.61084 29.0973 8.75684 37.2433 18.8054 37.2433Z" fill="#6C27B3"/>
<path d="M27.2424 10.3012C25.0685 10.5764 22.8019 10.5668 20.5207 10.3496C17.3351 10.1045 12.6793 8.63426 10.964 11.5748C8.20834 16.2824 9.56746 22.3093 10.2096 27.6428L19.7857 37.2168C29.0527 36.7248 36.4797 29.2988 36.9733 20.0322L27.2424 10.3012Z" fill="#501A96"/>
<path d="M23.0148 8.63425H14.5959C11.1745 8.63425 8.39099 11.4177 8.39099 14.8392V23.2581C8.39099 26.6794 11.1745 29.4631 14.596 29.4631H23.0149C26.4362 29.4631 29.2199 26.6795 29.2199 23.2581V14.8392C29.2198 11.4177 26.4363 8.63425 23.0148 8.63425ZM27.1245 23.2582C27.1245 25.5278 25.2845 27.3677 23.0149 27.3677H14.596C12.3264 27.3677 10.4864 25.5278 10.4864 23.2582V14.8392C10.4864 12.5696 12.3264 10.7296 14.596 10.7296H23.0149C25.2845 10.7296 27.1245 12.5697 27.1245 14.8392V23.2582Z" fill="white"/>
<path d="M18.8054 13.6615C15.835 13.6615 13.4182 16.0783 13.4182 19.0487C13.4182 22.0189 15.835 24.4356 18.8054 24.4356C21.7758 24.4356 24.1923 22.0191 24.1923 19.0487C24.1923 16.0783 21.7758 13.6615 18.8054 13.6615ZM18.8054 22.3402C16.9874 22.3402 15.5136 20.8667 15.5136 19.0487C15.5136 17.2306 16.9874 15.7569 18.8054 15.7569C20.6233 15.7569 22.097 17.2306 22.097 19.0487C22.097 20.8666 20.6233 22.3402 18.8054 22.3402Z" fill="white"/>
<path d="M25.4936 13.7021C25.4936 14.415 24.9156 14.993 24.2027 14.993C23.4898 14.993 22.9118 14.415 22.9118 13.7021C22.9118 12.9892 23.4898 12.4113 24.2027 12.4113C24.9158 12.4113 25.4936 12.9891 25.4936 13.7021Z" fill="#D1D1D1"/>
<path d="M23.0149 8.63425H18.7646V10.7296H23.0149C25.2846 10.7296 27.1245 12.5697 27.1245 14.8392V23.2582C27.1245 25.5278 25.2846 27.3677 23.0149 27.3677H18.7646V29.4631H23.0149C26.4362 29.4631 29.2199 26.6795 29.2199 23.2581V14.8392C29.2199 11.4177 26.4363 8.63425 23.0149 8.63425Z" fill="#D1D1D1"/>
<path d="M18.8054 13.6615C18.7917 13.6615 18.7784 13.6625 18.7646 13.6625V15.7579C18.7782 15.7577 18.7917 15.7569 18.8054 15.7569C20.6234 15.7569 22.097 17.2306 22.097 19.0487C22.097 20.8666 20.6235 22.3402 18.8054 22.3402C18.7917 22.3402 18.7782 22.3394 18.7646 22.3393V24.4346C18.7784 24.4348 18.7917 24.4356 18.8054 24.4356C21.7759 24.4356 24.1924 22.019 24.1924 19.0487C24.1924 16.0783 21.7759 13.6615 18.8054 13.6615Z" fill="#D1D1D1"/>
</g>
<defs>
<clipPath id="clip0_3_20">
<rect width="36.3892" height="36.3892" fill="white" transform="translate(0.61084 0.854065)"/>
</clipPath>
</defs>
</svg>
