<svg width="40" height="40" viewBox="0 0 40 40" fill="none" xmlns="http://www.w3.org/2000/svg">
<g clip-path="url(#clip0_4_45)">
<path d="M19.6216 39.6703C30.4583 39.6703 39.2432 30.8854 39.2432 20.0487C39.2432 9.21193 30.4583 0.427032 19.6216 0.427032C8.7849 0.427032 0 9.21193 0 20.0487C0 30.8854 8.7849 39.6703 19.6216 39.6703Z" fill="#D22215"/>
<path d="M29.4981 13.483C28.9097 13.6626 28.2962 13.8169 27.6817 13.9706C23.3213 14.8955 17.5075 12.385 14.997 16.481C12.9032 19.7381 12.2422 23.8137 9.86035 26.7259L22.5824 39.448C31.0496 38.1665 37.7411 31.474 39.0214 23.0064L29.4981 13.483Z" fill="#A81411"/>
<path d="M26.1864 12.1029H13.0569C10.4809 12.1029 8.39276 14.1912 8.39276 16.767V23.3305C8.39276 25.9064 10.481 27.9946 13.0569 27.9946H26.1864C28.7623 27.9946 30.8505 25.9063 30.8505 23.3305V16.767C30.8505 14.1912 28.7622 12.1029 26.1864 12.1029ZM23.0319 20.3681L16.891 23.2969C16.7273 23.375 16.5382 23.2558 16.5382 23.0745V17.0337C16.5382 16.8497 16.7323 16.7305 16.8961 16.8137L23.0371 19.9256C23.22 20.0182 23.2167 20.2801 23.0319 20.3681Z" fill="white"/>
<path d="M26.1864 12.1029H19.4895V18.1277L23.0373 19.9255C23.22 20.0181 23.2167 20.2799 23.032 20.368L19.4895 22.0576V27.9946H26.1864C28.7623 27.9946 30.8505 25.9063 30.8505 23.3305V16.767C30.8505 14.1912 28.7622 12.1029 26.1864 12.1029Z" fill="#D1D1D1"/>
</g>
<defs>
<clipPath id="clip0_4_45">
<rect width="39.2432" height="39.2432" fill="white" transform="translate(0 0.427032)"/>
</clipPath>
</defs>
</svg>
